<?xml version="1.0" encoding="utf-8"?>
<!-- Generator: Adobe Illustrator 16.0.4, SVG Export Plug-In . SVG Version: 6.00 Build 0)  -->
<!DOCTYPE svg PUBLIC "-//W3C//DTD SVG 1.0//EN" "http://www.w3.org/TR/2001/REC-SVG-20010904/DTD/svg10.dtd">
<svg xmlns="http://www.w3.org/2000/svg" xmlns:xlink="http://www.w3.org/1999/xlink" version="1.0" id="Layer_1" x="0px" y="0px" width="40px" height="40px" viewBox="0 0 40 40" enable-background="new 0 0 40 40" xml:space="preserve">
<path fill="#FFFFFF" d="M37.068,34.318l-9.703-9.703c1.74-2.312,2.773-5.186,2.773-8.296c0-7.62-6.199-13.819-13.82-13.819  C8.699,2.5,2.5,8.699,2.5,16.319c0,7.621,6.199,13.82,13.819,13.82c3.11,0,5.983-1.033,8.296-2.773l9.703,9.703  c0.381,0.381,0.879,0.57,1.375,0.57c0.498,0,0.996-0.189,1.375-0.57C37.829,36.311,37.829,35.079,37.068,34.318z M6.221,16.319  c0-5.568,4.53-10.099,10.099-10.099s10.099,4.53,10.099,10.099c0,5.57-4.53,10.099-10.099,10.099S6.221,21.889,6.221,16.319z"/>
</svg>
